<svg xmlns="http://www.w3.org/2000/svg" viewBox="0 0 100 100">
  <defs>
    <linearGradient id="gradient" x1="0%" y1="0%" x2="100%" y2="100%">
      <stop offset="0%" style="stop-color:#6366f1"/>
      <stop offset="100%" style="stop-color:#8b5cf6"/>
    </linearGradient>
  </defs>
  <circle cx="50" cy="50" r="45" fill="url(#gradient)"/>
  <g fill="white">
    <!-- Hands forming a heart/unity symbol -->
    <path d="M50 25 C35 25 25 38 25 48 C25 65 50 80 50 80 C50 80 75 65 75 48 C75 38 65 25 50 25 Z" fill="white" opacity="0.9"/>
    <!-- People silhouettes -->
    <circle cx="35" cy="55" r="6" fill="white"/>
    <circle cx="50" cy="50" r="7" fill="white"/>
    <circle cx="65" cy="55" r="6" fill="white"/>
    <path d="M28 70 Q35 62 42 70" stroke="white" stroke-width="3" fill="none"/>
    <path d="M43 68 Q50 58 57 68" stroke="white" stroke-width="3" fill="none"/>
    <path d="M58 70 Q65 62 72 70" stroke="white" stroke-width="3" fill="none"/>
  </g>
</svg>
